<?xml version="1.0" encoding="UTF-8"?>
<svg width="24px" height="24px" viewBox="0 0 24 24" version="1.1" xmlns="http://www.w3.org/2000/svg" xmlns:xlink="http://www.w3.org/1999/xlink">
    <!-- Generator: Sketch 48.2 (47327) - http://www.bohemiancoding.com/sketch -->
    <title>dailymotion</title>
    <desc>Created with Sketch.</desc>
    <defs></defs>
    <g id="Page-1" stroke="none" stroke-width="1" fill="none" fill-rule="evenodd">
        <g id="dailymotion" fill="#999999" fill-rule="nonzero">
            <path d="M12.518837,18.7871892 C14.5222758,18.7871892 16.2015426,17.1373558 16.2015426,14.9570469 C16.2015426,12.6885499 14.5222758,10.9797711 12.3420567,10.9797711 C10.1324266,10.9797711 8.42368142,12.7769737 8.42368142,14.8981351 C8.42368142,17.1077204 10.1324266,18.7871892 12.518837,18.7871892 Z M20.6797371,22.9117221 L16.1720306,22.9117221 L16.1720306,21.1441437 C14.7874238,22.4992048 13.3731927,23 11.4876673,23 C9.57264105,23 7.92275158,22.3815159 6.5380662,21.1441437 C4.71144807,19.5236764 3.76868422,17.4025038 3.76868422,14.9277593 C3.76868422,12.6591501 4.65258003,10.6261881 6.30241901,9.03523283 C7.77547208,7.5916132 9.57264105,6.8551596 11.576035,6.8551596 C13.4910612,6.8551596 14.9641592,7.50330161 16.0248072,8.85860964 L16.0248072,1.96447032 L20.6797371,1 L20.6797371,22.9117221 Z" id="path26"></path>
        </g>
    </g>
</svg>