<?xml version="1.0" encoding="UTF-8"?>
<svg width="24px" height="24px" viewBox="0 0 24 24" version="1.1" xmlns="http://www.w3.org/2000/svg" xmlns:xlink="http://www.w3.org/1999/xlink">
    <!-- Generator: Sketch 48.2 (47327) - http://www.bohemiancoding.com/sketch -->
    <title>doubleclick</title>
    <desc>Created with Sketch.</desc>
    <defs></defs>
    <g id="Page-1" stroke="none" stroke-width="1" fill="none" fill-rule="evenodd">
        <g id="doubleclick" fill="#999999" fill-rule="nonzero">
            <path d="M12.3324314,8.33513713 C9.62294921,8.33513713 7.25600787,9.81028164 5.98703726,12.0002706 C5.36364531,10.922322 5,9.66850326 5,8.33513713 C5,4.28579511 8.28633624,1 12.3324314,1 C16.3866437,1 19.67298,4.28633624 19.67298,8.33513713 C19.67298,9.66796212 19.3120403,10.922322 18.6821547,12.0002706 C17.4142664,9.81082278 15.0527364,8.33513713 12.3324314,8.33513713 Z M12.3324314,15.6681097 C15.0532776,15.6681097 17.4142664,14.1935063 18.6821547,12.0008117 C19.3120403,13.0798426 19.67298,14.328791 19.67298,15.6681097 C19.67298,19.7152872 16.3866437,23 12.3324314,23 C8.28633624,23 5,19.7152872 5,15.6681097 C5,14.3293322 5.36364531,13.0798426 5.98703726,12.0008117 C7.25600787,14.1935063 9.62240807,15.6681097 12.3324314,15.6681097 Z" id="Combined-Shape"></path>
        </g>
    </g>
</svg>