<?xml version="1.0" encoding="UTF-8"?>
<svg width="24px" height="24px" viewBox="0 0 24 24" version="1.1" xmlns="http://www.w3.org/2000/svg" xmlns:xlink="http://www.w3.org/1999/xlink">
    <!-- Generator: Sketch 48.2 (47327) - http://www.bohemiancoding.com/sketch -->
    <title>hulu</title>
    <desc>Created with Sketch.</desc>
    <defs></defs>
    <g id="Page-1" stroke="none" stroke-width="1" fill="none" fill-rule="evenodd">
        <g id="hulu" fill="#999999" fill-rule="nonzero">
            <path d="M4.45807407,10.2613148 C5.56387963,10.2613148 6.44713889,10.7711852 6.44713889,12.0960741 L6.44713889,15.2464537 L4.69976852,15.2464537 L4.69976852,12.3223889 C4.69976852,12.063787 4.49056481,11.8543796 4.23175926,11.8543796 L3.21507407,11.8543796 C2.95667593,11.8543796 2.74686111,12.063787 2.74686111,12.3223889 L2.74686111,15.2464537 L1,15.2464537 L1,8.00010185 L2.74686111,8.00010185 L2.74686111,10.3673426 C2.74686111,10.3673426 2.9444537,10.2613148 3.33739815,10.2613148 L4.45807407,10.2613148 Z M21.2526296,10.2613148 L23,10.2613148 L23,13.3308241 C23,14.45975 22.3457037,15.2374907 21.2528333,15.2374907 L21.2528333,15.2464537 L19.5420278,15.2464537 C18.3553519,15.2464537 17.5524537,14.5854352 17.5524537,13.3308241 L17.5524537,10.2613148 L19.3001296,10.2613148 L19.3001296,13.1849722 C19.3001296,13.4439815 19.5093333,13.6534907 19.7681389,13.6534907 L20.7847222,13.6534907 C21.0433241,13.6534907 21.2526296,13.4439815 21.2526296,13.1849722 L21.2526296,10.2613148 Z M11.3964259,13.1849722 L11.3964259,10.2613148 L13.1437963,10.2613148 L13.1437963,13.3308241 C13.1437963,14.45975 12.4893981,15.2374907 11.3964259,15.2374907 L11.3964259,15.2464537 L9.68562037,15.2464537 C8.4990463,15.2464537 7.69614815,14.5854352 7.69614815,13.3308241 L7.69614815,10.2613148 L9.44351852,10.2613148 L9.44351852,13.1849722 C9.44351852,13.4439815 9.65282407,13.6534907 9.91162963,13.6534907 L10.9283148,13.6534907 C11.1869167,13.6534907 11.3964259,13.4439815 11.3964259,13.1849722 Z M14.4755093,15.2464537 L14.4755093,8 L16.2230833,8 L16.2230833,15.2464537 L14.4755093,15.2464537 Z" id="path3356"></path>
        </g>
    </g>
</svg>