<?xml version="1.0" encoding="UTF-8"?>
<svg width="51px" height="57px" viewBox="0 0 51 57" version="1.1" xmlns="http://www.w3.org/2000/svg" xmlns:xlink="http://www.w3.org/1999/xlink">
    <!-- Generator: Sketch 46.2 (44496) - http://www.bohemiancoding.com/sketch -->
    <title>polygon</title>
    <desc>Created with Sketch.</desc>
    <defs>
        <path d="M0,15.571102 C0,13.7823673 1.49926531,12.1293061 3.04310204,11.2359184 L21.5642449,0.671510204 C23.1110204,-0.223836735 25.1564082,-0.223836735 26.7031837,0.671510204 L44.7428571,11.2393469 C46.2896327,12.1322449 47.0360816,13.7857959 47.0360816,15.571102 L47.0360816,36.7033469 C47.0360816,38.4920816 46.3577143,40.1417143 44.8138776,41.0380408 L26.7061224,51.6058776 C25.1593469,52.5012245 23.3172245,52.5012245 21.770449,51.6058776 L3.01028571,41.0409796 C1.4644898,40.1451429 0,38.4920816 0,36.7062857 L0,15.571102 Z" id="path-1"></path>
        <filter x="-6.4%" y="-5.7%" width="112.8%" height="111.5%" filterUnits="objectBoundingBox" id="filter-2">
            <feOffset dx="0" dy="0" in="SourceAlpha" result="shadowOffsetOuter1"></feOffset>
            <feGaussianBlur stdDeviation="1" in="shadowOffsetOuter1" result="shadowBlurOuter1"></feGaussianBlur>
            <feColorMatrix values="0 0 0 0 0   0 0 0 0 0   0 0 0 0 0  0 0 0 0.24 0" type="matrix" in="shadowBlurOuter1"></feColorMatrix>
        </filter>
    </defs>
    <g id="Quiz" stroke="none" stroke-width="1" fill="none" fill-rule="evenodd">
        <g id="Quiz-App-Accessability-" transform="translate(-922.000000, -441.000000)">
            <g id="polygon" transform="translate(924.000000, 443.000000)">
                <g id="Shape">
                    <use fill="black" fill-opacity="1" filter="url(#filter-2)" xlink:href="#path-1"></use>
                    <use fill="#FFFFFF" fill-rule="evenodd" xlink:href="#path-1"></use>
                </g>
                <path d="M22.5,24.5 L18.5,24.5 L18.5,24.5 C17.6715729,24.5 17,25.1715729 17,26 C17,26.8284271 17.6715729,27.5 18.5,27.5 L22.5,27.5 L22.5,31.5 C22.5,32.3284271 23.1715729,33 24,33 L24,33 C24.8284271,33 25.5,32.3284271 25.5,31.5 L25.5,27.5 L29.5,27.5 C30.3284271,27.5 31,26.8284271 31,26 C31,25.1715729 30.3284271,24.5 29.5,24.5 L25.5,24.5 L25.5,20.5 L25.5,20.5 C25.5,19.6715729 24.8284271,19 24,19 L24,19 L24,19 C23.1715729,19 22.5,19.6715729 22.5,20.5 L22.5,24.5 Z" id="Combined-Shape" fill="#222222"></path>
            </g>
        </g>
    </g>
</svg>