<svg xmlns="http://www.w3.org/2000/svg" width="77" height="40"><g fill="none"><g><path fill="#9B9B9B" fill-rule="nonzero" d="M40.68 24.97L29.28 11c-.74.5-1.3 1.18-1.65 2-.34.8-.44 1.67-.3 2.53.24 1.36.9 2.6 1.9 3.57l3.24 3.13-2.23 2.72c-1.87-.48-3.83.36-4.74 2.02-.92 1.67-.54 3.73.9 5 1.44 1.25 3.57 1.38 5.16.3 1.58-1.08 2.2-3.08 1.5-4.85l2.4-2.3 2.4 2.3c-.67 1.67-.15 3.57 1.28 4.7 1.43 1.1 3.44 1.17 4.95.16 1.5-1 2.16-2.87 1.62-4.58-.54-1.7-2.15-2.88-3.98-2.88-.36 0-.72.06-1.06.15zm-13.35 3.7c-.26-.6-.12-1.32.35-1.8.48-.46 1.2-.6 1.8-.35.62.26 1.02.86 1.02 1.53 0 .9-.74 1.65-1.65 1.65-.67 0-1.27-.4-1.52-1.02zm12.1 0c-.25-.6-.1-1.32.36-1.8.46-.46 1.17-.6 1.8-.35.6.26 1 .86 1 1.53 0 .9-.73 1.65-1.64 1.65-.67 0-1.27-.4-1.53-1.02zm-2.32-10.8L42.68 11c.78.53 1.4 1.28 1.75 2.15.37.86.48 1.82.32 2.74-.25 1.45-.96 2.8-2.02 3.85L40.4 22l-3.3-4.12zM51 7v2.2h-2.2V7H51zm-6.6 0v2.2h-2.2V7h2.2zm-5.5 2.2h-2.2V7h2.2v2.2zm-6.6 0h-2.2V7h2.2v2.2zm16.5 15.4H51v2.2h-2.2v-2.2zm0-12.1H51v2.2h-2.2v-2.2zm0 6.6H51v2.2h-2.2v-2.2z" opacity=".9"/><path d="M0 0h77v40H0z"/></g></g></svg>
