<svg xmlns="http://www.w3.org/2000/svg" width="77" height="40"><defs><linearGradient id="a" x1="138.223%" x2="40.323%" y1="133.275%" y2="6.656%"><stop stop-color="#fff" stop-opacity=".514" offset="0%"/><stop stop-color="#fff" offset="100%"/></linearGradient></defs><g fill="none"><g><g fill="url(#a)" transform="translate(26 7)"><path d="M1 13C1 6.38 6.38 1 13 1s12 5.38 12 12-5.38 12-12 12S1 19.62 1 13zm7.64-2.93c0 .26.1.5.33.74s.5.35.83.35c.55 0 .93-.33 1.12-.98.2-.62.47-1.1.77-1.4.3-.33.76-.5 1.4-.5.55 0 1 .17 1.34.48.35.32.52.7.52 1.17 0 .24-.05.46-.17.66-.12.2-.26.38-.43.55-.16.16-.43.4-.8.73-.43.37-.76.7-1.02.95-.25.28-.45.6-.6.95-.15.35-.22.77-.22 1.26 0 .4.1.68.3.88.2.2.47.3.77.3.58 0 .93-.3 1.04-.9.06-.3.1-.5.14-.6.03-.1.08-.22.14-.34.06-.1.14-.23.26-.37.12-.13.28-.3.48-.47.7-.63 1.2-1.08 1.5-1.35.26-.27.5-.6.7-.96.2-.38.3-.8.3-1.3 0-.62-.17-1.2-.52-1.72-.36-.54-.86-.95-1.5-1.26-.65-.3-1.4-.47-2.24-.47-.9 0-1.7.2-2.38.56-.68.38-1.2.84-1.55 1.4-.36.57-.53 1.12-.53 1.67zm4.26 9.48c.34 0 .64-.12.9-.35.26-.23.4-.55.4-.95 0-.36-.13-.67-.38-.92s-.56-.37-.92-.37c-.38 0-.7.12-.95.37s-.38.56-.38.92c0 .4.13.73.4.95.26.23.57.35.93.35z"/></g><path fill="#fff" d="M0 0h1c1.66 0 3 1.34 3 3v34c0 1.66-1.34 3-3 3H0V0z"/><path d="M0 0h77v40H0z"/></g></g></svg>
