<?xml version="1.0" encoding="UTF-8"?>
<svg width="24px" height="24px" viewBox="0 0 24 24" version="1.1" xmlns="http://www.w3.org/2000/svg" xmlns:xlink="http://www.w3.org/1999/xlink">
    <!-- Generator: Sketch 48.2 (47327) - http://www.bohemiancoding.com/sketch -->
    <title>freewheel</title>
    <desc>Created with Sketch.</desc>
    <defs></defs>
    <g id="Page-1" stroke="none" stroke-width="1" fill="none" fill-rule="evenodd">
        <g id="freewheel" fill="#999999" fill-rule="nonzero">
            <path d="M22.9198815,10.6415151 C22.5834191,8.62416737 21.1657153,6.95484667 19.229482,6.29613621 C17.2932488,5.63742574 15.1516741,6.09587271 13.6547873,7.48951131 C13.6401396,7.50228375 13.6263815,7.51604184 13.6136091,7.53068951 L13.5724309,7.56438076 L13.5499701,7.59432854 C12.797587,8.32442079 12.2668337,9.25226575 12.0188898,10.2709113 C11.7710727,9.24620667 11.23755,8.31286656 10.4803227,7.57935465 L10.4578619,7.54940687 L10.4166837,7.51571562 L10.371762,7.48951131 C8.71610021,5.95319718 6.29735628,5.56701612 4.24562165,6.51140061 C2.19388702,7.45578509 0.914209478,9.54429733 1.00448309,11.8011375 C1.09475669,14.0579777 2.53715989,16.0376067 4.65776953,16.8150975 C6.77837916,17.5925882 9.15855034,17.0144505 10.6862137,15.3508034 L9.90008446,14.5796481 C8.69148025,15.9240664 6.79112523,16.4064119 5.08765155,15.8011334 C3.38417787,15.1958548 2.21423024,13.6225688 2.12489226,11.8169654 L11.2701954,11.8169654 C11.5737649,11.8205175 11.8573432,11.6659674 12.0188898,11.4089269 C12.1788156,11.6549285 12.4517122,11.804037 12.7451235,11.805735 L21.901657,11.805735 C21.7691016,14.1767137 19.8140882,16.0349606 17.4394379,16.0470892 C16.1750311,16.0480041 14.9701127,15.5102157 14.1264648,14.5684176 L13.3365921,15.3508034 C15.0039972,17.1694276 17.6701022,17.6724265 19.8855202,16.5863525 C22.1009382,15.5002784 23.3362436,13.084674 22.9198815,10.6527455 L22.9198815,10.6415151 Z M2.19227477,10.7051541 C2.60727382,8.60839254 4.44220808,7.09441522 6.57962443,7.08521629 C7.74156873,7.08116332 8.85815746,7.53587054 9.68670654,8.35050996 C10.356441,8.98100908 10.8141978,9.80366354 10.9969219,10.7051541 L2.19227477,10.7051541 Z M13.0221405,10.7051541 C13.207637,9.80469026 13.6649554,8.98282377 14.3323558,8.35050996 C15.1615844,7.5369042 16.2777295,7.08237765 17.4394379,7.08521629 C19.5782635,7.09263752 21.4152528,8.60701825 21.830531,10.7051541 L13.0221405,10.7051541 Z" id="Shape"></path>
        </g>
    </g>
</svg>