<?xml version="1.0" encoding="UTF-8"?>
<svg width="24px" height="24px" viewBox="0 0 24 24" version="1.1" xmlns="http://www.w3.org/2000/svg" xmlns:xlink="http://www.w3.org/1999/xlink">
    <!-- Generator: Sketch 48.2 (47327) - http://www.bohemiancoding.com/sketch -->
    <title>kaltura</title>
    <desc>Created with Sketch.</desc>
    <defs></defs>
    <g id="Page-1" stroke="none" stroke-width="1" fill="none" fill-rule="evenodd">
        <g id="kaltura" fill="#999999">
            <path d="M11.9213563,1 C12.4260604,1 12.8217812,1.53898209 12.8217812,2.22735176 L12.8217812,6.08769168 C12.8217812,6.77606134 12.4260604,7.31517244 11.9213563,7.31517244 C11.4166522,7.31517244 11.0209314,6.77606134 11.0209314,6.08769168 L11.0209314,2.22735176 C11.0209314,1.53898209 11.4166522,1 11.9213563,1 Z M10.4397469,11.8525296 C10.4397469,11.0283179 11.1031235,10.360073 11.9213307,10.360073 C12.739666,10.360073 13.4029145,11.0283179 13.4029145,11.8525296 C13.4029145,12.6767413 12.739666,13.3449862 11.9213307,13.3449862 C11.1031235,13.3449862 10.4397469,12.6767413 10.4397469,11.8525296 Z M11.9213563,16.7059227 C12.4260604,16.7059227 12.8217812,17.2376806 12.8217812,17.9171489 L12.8217812,21.7100193 C12.8217812,22.3893586 12.4260604,22.9211164 11.9213563,22.9211164 C11.4166522,22.9211164 11.0209314,22.3893586 11.0209314,21.7100193 L11.0209314,17.9171489 C11.0209314,17.2376806 11.4166522,16.7059227 11.9213563,16.7059227 Z M5.98544181,11.055783 C6.66162493,11.055783 7.19053332,11.4535048 7.19053332,11.9610097 C7.19053332,12.4685147 6.66162493,12.8653335 5.98544181,12.8653335 L2.20496345,12.8653335 C1.52878032,12.8653335 1,12.4685147 1,11.9610097 C1,11.4535048 1.52878032,11.055783 2.20496345,11.055783 L5.98544181,11.055783 Z M21.6207038,11.055783 C22.3058514,11.055783 22.8426998,11.4535048 22.8426998,11.9610097 C22.8426998,12.4685147 22.3058514,12.8653335 21.6207038,12.8653335 L17.7732474,12.8653335 C17.0880997,12.8653335 16.5512513,12.4685147 16.5512513,11.9610097 C16.5512513,11.4535048 17.0880997,11.055783 17.7732474,11.055783 L21.6207038,11.055783 Z M8.64476245,15.3165667 C8.78499361,15.456924 8.86003969,15.6486251 8.86003969,15.8699974 C8.86093615,16.1885102 8.69931814,16.5412094 8.42948521,16.8121195 L5.75676897,19.4954195 C5.48603959,19.7663296 5.13590992,19.9273276 4.81882102,19.9273276 C4.59906151,19.9273276 4.40875694,19.8526339 4.26762932,19.7122766 C4.12650171,19.5701133 4.05235208,19.3785412 4.05235208,19.1562659 C4.05145563,18.837624 4.2132017,18.4858279 4.48290656,18.2149178 L7.1556228,15.5316178 C7.61563223,15.0736507 8.30436572,14.9709629 8.64476245,15.3165667 Z M19.7126379,4.20976866 C19.8519726,4.3501259 19.9261223,4.54092401 19.9261223,4.76139323 C19.9261223,5.08351824 19.7609184,5.44163559 19.4848103,5.71886693 L16.76471,8.44899571 C16.48873,8.72519501 16.1332216,8.88993415 15.8125469,8.88993415 C15.5936838,8.88993415 15.4042757,8.81601439 15.264941,8.67656019 C15.1247098,8.53620296 15.0505602,8.34540485 15.0505602,8.12493563 C15.0505602,7.80281062 15.215764,7.44469327 15.4918721,7.16759094 L18.2118444,4.43746215 C18.6773606,3.97227081 19.3677589,3.86777691 19.7126379,4.20976866 Z M8.42947241,7.10817132 C8.69930533,7.37998445 8.86092334,7.7326836 8.86002689,8.05119648 C8.86002689,8.27256873 8.78498081,8.46426988 8.64385319,8.60553014 C8.50451849,8.74679041 8.31331746,8.8214842 8.0926615,8.8214842 C7.77646905,8.8214842 7.42633938,8.65945415 7.15561,8.38957609 L4.48289376,5.70705009 C4.2131889,5.43626899 4.05144282,5.08447287 4.05144282,4.76492796 C4.05144282,4.54355571 4.12559245,4.35198357 4.26672006,4.20982027 C4.61070261,3.86602245 5.29764319,3.96677521 5.75675617,4.42577432 L8.42947241,7.10817132 Z M19.4848487,18.2023656 C19.7608288,18.479468 19.9261607,18.8377143 19.9261607,19.1598393 C19.9261607,19.3803085 19.8520111,19.5709777 19.7126763,19.7114639 C19.5723171,19.8509181 19.3830371,19.9256119 19.164174,19.9256119 C18.8434993,19.9256119 18.4869664,19.7599697 18.2109863,19.4837704 L15.490886,16.7536416 C15.2158025,16.4764103 15.0505986,16.119196 15.0505986,15.797071 C15.0505986,15.5766017 15.1246202,15.3858036 15.264083,15.2454464 C15.6079374,14.8990685 16.3011532,15.0088516 16.7647485,15.4740429 L19.4848487,18.2023656 Z" id="Combined-Shape"></path>
        </g>
    </g>
</svg>