<?xml version="1.0" encoding="UTF-8"?>
<svg width="24px" height="24px" viewBox="0 0 24 24" version="1.1" xmlns="http://www.w3.org/2000/svg" xmlns:xlink="http://www.w3.org/1999/xlink">
    <!-- Generator: Sketch 48.2 (47327) - http://www.bohemiancoding.com/sketch -->
    <title>yahoo</title>
    <desc>Created with Sketch.</desc>
    <defs></defs>
    <g id="Page-1" stroke="none" stroke-width="1" fill="none" fill-rule="evenodd">
        <g id="yahoo" fill="#999999" fill-rule="nonzero">
            <path d="M2,1 C2.77834366,1.24957759 3.53553669,1.21150643 4.28849958,1.13536412 C4.37733228,1.12690386 4.46616498,1.09729296 4.54653742,1.0592218 C4.7199727,0.983079486 4.81303553,1.0592218 4.89340797,1.2072763 C5.67175164,2.6412899 6.54315813,4.02454196 7.37226334,5.42894466 C7.85026787,6.23689922 8.3578833,7.02793327 8.84857822,7.82742758 C9.33081289,8.61846163 9.80458729,9.40949568 10.2783617,10.2047599 C10.3925752,10.3951156 10.4094957,10.3993458 10.519479,10.2174502 C11.111697,9.24875079 11.703915,8.28005134 12.2876728,7.30712176 C12.9898741,6.13960626 13.6793851,4.96786064 14.3858166,3.80457527 C14.9188128,2.92893865 15.4433487,2.0490719 15.9382738,1.15651476 C16.0694078,0.915397428 16.2470732,1.05076154 16.373977,1.08460257 C16.602404,1.14382437 16.8266008,1.1776654 17.0550277,1.18189553 C17.4611201,1.19035579 17.8714426,1.19881604 18.2775349,1.14382437 C18.379058,1.13113399 18.4594304,1.06768206 18.5609535,1.06345193 C18.6159452,1.06345193 18.6793971,1.0296109 18.7174683,1.08460257 C18.7513093,1.13536412 18.7047779,1.1776654 18.6793971,1.21573656 C18.4805811,1.53299621 18.2859952,1.85871611 18.0787189,2.17174563 C17.6091746,2.87394698 17.1819316,3.59729897 16.7504585,4.32065096 C16.3147552,5.04823308 15.8748218,5.77158507 15.4475789,6.50339732 C15.0837878,7.12522623 14.728457,7.75551539 14.3688961,8.38157443 C13.8908915,9.20644951 13.412887,10.0313246 12.9391126,10.8561997 C12.6049324,11.4399574 12.2919029,12.0321754 11.9534926,12.6074729 C11.8688901,12.7512973 11.8054381,12.907812 11.703915,13.0431762 C11.6193125,13.1573896 11.5939317,13.2927537 11.5897016,13.4408082 C11.572781,14.7606084 11.6235426,16.0761784 11.6489234,17.3917484 C11.6616138,17.9755061 11.6446932,18.563494 11.6869945,19.1430216 C11.7504465,20.0144281 11.7546766,20.8858346 11.767367,21.7614712 C11.767367,21.9010655 11.7885176,22.0406597 11.7969779,22.180254 C11.8054381,22.281777 11.7885176,22.3325386 11.6573836,22.3029277 C11.1074669,22.1717937 10.5490899,22.1210322 9.98648282,22.1675636 C9.72844497,22.1887142 9.47040713,22.2310155 9.22082954,22.2944674 C9.06008465,22.3325386 9.04739427,22.2775469 9.04739427,22.1464129 C9.06431478,21.2327052 9.05585453,20.3147672 9.10238594,19.4010595 C9.12776671,18.9103645 9.10661607,18.4154395 9.13199684,17.9247446 C9.1996789,16.5203419 9.23775006,15.1117091 9.23351993,13.7030762 C9.23351993,13.432348 9.1996789,13.1870005 9.05585453,12.9458832 C8.60746089,12.1886902 8.17175765,11.427267 7.7360544,10.6616138 C7.25381974,9.81981816 6.78427546,8.97379243 6.3020408,8.13199684 C5.95517025,7.52285832 5.59560932,6.92218006 5.24027852,6.32150179 C4.63537013,5.30627093 4.03046173,4.28680993 3.41709309,3.27580919 C2.98138984,2.56091746 2.53722633,1.85448598 2.06345193,1.17343527 C2.03384103,1.13536412 2.0296109,1.08460257 2,1 Z M22.2115545,2.45093411 C22.194634,2.77665402 22.0931109,3.09391366 22.0211987,3.40694318 C21.8942949,3.94416951 21.7758513,4.48139585 21.6489474,5.01862218 C21.4332108,5.93656009 21.209014,6.854498 21.0059679,7.77666604 C20.8240723,8.61846163 20.5998755,9.44756684 20.4052896,10.2893624 C20.2572351,10.9238817 20.1303312,11.5626311 19.9949671,12.1971504 C19.8511427,12.8655108 19.694628,13.5296409 19.5719543,14.2022314 C19.4873517,14.6548552 19.4069792,15.1117091 19.3139164,15.5601027 C19.2039331,16.1057893 19.1447113,16.6641663 19.0093471,17.2056227 C18.9755061,17.3409868 18.9543555,17.4805811 18.9416651,17.6201753 C18.9289747,17.742849 18.873983,17.7682298 18.7724599,17.7174683 C18.5398029,17.5990247 18.2902253,17.5863343 18.0321874,17.5947945 C17.9222041,17.5990247 17.8883631,17.5651836 17.8968233,17.44674 C17.9602753,16.7783797 18.0702586,16.1142495 18.1548612,15.4458892 C18.2310035,14.8325206 18.281765,14.2191519 18.3621375,13.6057833 C18.5059618,12.5059498 18.5863343,11.4018863 18.709008,10.3020528 C18.7978407,9.51947903 18.7978407,8.7326751 18.9247446,7.95433144 C19.005117,7.45094613 18.9755061,6.93064031 19.0347279,6.41879475 C19.0981799,5.87310816 19.1277908,5.32742157 19.1785523,4.78173498 C19.2293138,4.22758813 19.2716151,3.67767141 19.3181465,3.12352456 C19.3477574,2.78088415 19.3477574,2.43824373 19.4365901,2.09983344 C19.5761844,1.59221801 19.8680633,1.24957759 20.4052896,1.15651476 C20.8621435,1.08037244 21.2893865,1.15651476 21.670098,1.4145526 C22.0465795,1.65990006 22.1819436,2.02792125 22.2115545,2.45093411 Z M17.9475849,22.3367687 C17.4695803,22.3240783 17.029647,22.2183251 16.7208476,21.8122328 C16.4035879,21.3976802 16.3993578,20.7377801 16.6954668,20.2597756 C16.9704252,19.8198422 17.4653502,19.6210262 18.0068067,19.6971685 C18.4086689,19.7521601 18.7597696,19.8832941 19.0093471,20.209014 C19.3689081,20.6743282 19.3266068,21.1988641 19.10241,21.6853289 C18.8866734,22.1548732 18.4763509,22.3706097 17.9475849,22.3367687 Z" id="Combined-Shape"></path>
        </g>
    </g>
</svg>