<?xml version="1.0" standalone="no"?>
<!DOCTYPE svg PUBLIC "-//W3C//DTD SVG 1.1//EN" "http://www.w3.org/Graphics/SVG/1.1/DTD/svg11.dtd" >
<svg xmlns="http://www.w3.org/2000/svg">
<metadata>Generated by IcoMoon</metadata>
<defs>
<font id="kea-icons" horiz-adv-x="1024">
<font-face units-per-em="1024" ascent="960" descent="-64" />
<missing-glyph horiz-adv-x="1024" />
<glyph unicode="&#x20;" horiz-adv-x="512" d="" />
<glyph unicode="&#xe900;" glyph-name="streams" d="M448.509 786.197l512-101.229c36.899-7.295 63.491-39.66 63.491-77.273v-311.815c0-37.613-26.593-69.978-63.491-77.273l-512-101.229c-42.677-8.438-84.114 19.319-92.551 61.995-0.995 5.032-1.496 10.149-1.496 15.278v514.273c0 43.503 35.266 78.769 78.769 78.769 5.129 0 10.246-0.501 15.278-1.496zM480.412 703.164c-2.566 0.518-5.178 0.779-7.796 0.779-21.752 0-39.385-17.633-39.385-39.385v-406.904c0-2.618 0.261-5.23 0.779-7.796 4.306-21.321 25.081-35.115 46.402-30.809l433.231 87.492c18.375 3.711 31.588 19.859 31.588 38.605v231.92c0 18.746-13.213 34.894-31.588 38.605l-433.231 87.492zM809.098 458.222l-178.628-111.642v223.285zM315.077 738.253v-67.594c-21.752 0-39.385-17.633-39.385-39.385v-342.821c0-2.208 0.186-4.412 0.555-6.589 3.263-19.231 19.953-32.825 38.83-32.802v-83.743l-26.577-4.38c-42.924-7.073-83.455 21.99-90.528 64.914-0.698 4.233-1.048 8.517-1.048 12.807v426.251c0 43.503 35.266 78.769 78.769 78.769 4.291 0 8.574-0.351 12.807-1.048l26.577-4.38zM157.538 690.265v-31.949c-21.752 0-39.385-17.633-39.385-39.385v-301.32c0-1.856 0.131-3.709 0.392-5.546 2.798-19.671 19.678-33.868 38.992-33.843v-68.8l-28.839-3.896c-43.111-5.824-82.782 24.403-88.606 67.514-0.472 3.496-0.709 7.019-0.709 10.546v332.326c0 43.503 35.266 78.769 78.769 78.769 3.359 0 6.715-0.215 10.046-0.643l29.338-3.773z" />
<glyph unicode="&#xe901;" glyph-name="multi-audio" d="M122.301 393.846h-82.917v78.769h142.375l12.676-44.484 79.599 318.397 109.057-399.876 81.782 531.582 130.863-567.073 116.639 388.797 74.703-298.81 17.303 71.468h180.233v-78.769h-118.259l-78.051-322.379-82.836 331.343-119.669-398.896-105.445 456.927-75.757-492.418-127.251 466.585-77.939-311.756z" />
<glyph unicode="&#xe902;" glyph-name="zoom-in" d="M669.533 669.539l-270.167-472.573h540.374l-270.208 472.573zM299.524 583.050l105.965-185.348-114.789-200.779h-211.931l220.754 386.127z" />
<glyph unicode="&#xe903;" glyph-name="zoom-out" d="M512 630.154l-236.308-354.462h472.615z" />
<glyph unicode="&#xe904;" glyph-name="check" d="M372.931 459.402c-15.835 17.451-42.818 18.761-60.269 2.926s-18.761-42.818-2.926-60.269l132.741-146.286c17.807-19.624 49.008-18.44 65.276 2.477l265.481 341.333c14.467 18.6 11.116 45.407-7.484 59.874s-45.407 11.116-59.874-7.484l-234.317-301.264-98.629 108.693z" />
<glyph unicode="&#xe907;" glyph-name="preview" d="M172.837 452.45c3.687-3.741 7.551-7.612 11.583-11.597 29.446-29.099 61.669-58.204 95.519-85.284 59.257-47.406 116.901-83.273 169.54-102.925 29.206-10.903 56.097-16.481 80.22-16.481s51.014 5.577 80.22 16.481c52.639 19.652 110.283 55.519 169.54 102.925 33.849 27.080 66.073 56.185 95.519 85.284 4.177 4.128 8.172 8.132 11.978 11.998-3.806 3.865-7.801 7.87-11.978 11.998-29.446 29.099-61.669 58.204-95.519 85.284-59.257 47.406-116.901 83.273-169.54 102.925-28.878 10.781-55.493 16.355-79.407 16.479-112.666-5.114-214.583-73.742-357.673-217.086zM528.028 748.272c35.975 0.035 71.959-7.428 109.439-21.421 61.679-23.027 125.974-63.033 191.196-115.211 36.17-28.936 70.394-59.848 101.68-90.765 10.963-10.834 20.792-20.913 29.358-29.988 5.213-5.523 8.897-9.541 10.919-11.806l23.42-26.231-23.42-26.231c-2.022-2.265-5.705-6.283-10.919-11.806-8.566-9.075-18.395-19.154-29.358-29.988-31.286-30.918-65.509-61.829-101.68-90.765-65.222-52.178-129.517-92.184-191.196-115.211-37.48-13.992-73.464-21.456-107.77-21.456s-70.29 7.463-107.77 21.456c-61.679 23.027-125.974 63.033-191.196 115.211-36.17 28.936-70.394 59.848-101.68 90.765-10.963 10.834-20.792 20.913-29.358 29.988-5.213 5.523-8.897 9.541-10.919 11.806l-22.948 25.701 22.423 26.16 2.332 2.599c172.071 176.667 290.633 260.952 437.445 267.191zM531.692 542.523c-45.14 0-81.723-36.583-81.723-81.723s36.583-81.723 81.723-81.723c45.14 0 81.723 36.583 81.723 81.723s-36.583 81.723-81.723 81.723zM531.692 581.908c66.892 0 121.108-54.216 121.108-121.108s-54.216-121.108-121.108-121.108c-66.892 0-121.108 54.216-121.108 121.108s54.216 121.108 121.108 121.108z" />
<glyph unicode="&#xe908;" glyph-name="reset" d="M826.39 412.28c0.345 5.366-1.526 10.781-5.268 14.72-3.742 3.963-8.936 6.228-14.375 6.228h-39.458c-10.289 0-18.855-7.926-19.643-18.191-9.379-122.313-112.886-218.115-235.646-218.115-130.316 0-236.308 105.992-236.308 236.308 0 130.291 105.992 236.308 236.308 236.308 56.049 0 110.082-19.939 152.542-55.975l-67.987-67.987c-5.612-5.612-7.311-14.080-4.283-21.464 3.028-7.336 10.24-12.16 18.191-12.16h196.923c10.88 0 19.692 8.837 19.692 19.692v196.923c0 8-4.8 15.163-12.16 18.24-2.412 1.009-4.997 1.452-7.532 1.452-5.12 0-10.166-2.018-13.932-5.76l-73.18-73.155c-58.117 51.299-131.815 78.965-208.272 78.965-173.734 0-315.078-141.369-315.078-315.077 0-173.733 141.344-315.077 315.078-315.077 165.364-0.005 303.507 129.202 314.39 294.126z" />
<glyph unicode="&#xe909;" glyph-name="sidebar" d="M196.923 866.462c-21.752 0-39.385-17.633-39.385-39.385v-433.231c0-21.752 17.633-39.385 39.385-39.385h630.154c21.752 0 39.385 17.633 39.385 39.385v433.231c0 21.752-17.633 39.385-39.385 39.385h-630.154zM196.923 945.231h630.154c65.255 0 118.154-52.899 118.154-118.154v-430.201c0-65.255-52.899-121.183-118.154-121.183h-630.154c-65.255 0-118.154 55.929-118.154 121.183v430.201c0 65.255 52.899 118.154 118.154 118.154zM393.846 945.231h78.769v-669.538h-78.769v669.538z" />
<glyph unicode="&#xe90a;" glyph-name="quiz-cuepoint" d="M157.538 606.349c0 25.354 22.591 48.788 45.859 61.449l279.153 149.756c23.31 12.696 54.137 12.696 77.451 0 0 0 90.632-49.933 135.948-74.899s135.948-74.899 135.948-74.899c23.314-12.665 34.566-36.096 34.566-61.407v-299.559c0-25.358-10.228-48.749-33.492-61.453l-272.924-235.815c-23.314-12.696-51.076-12.696-74.39 0l-282.751 235.772c-23.297 12.704-45.367 36.139-45.367 61.449v299.605z" />
<glyph unicode="&#xe90b;" glyph-name="play" d="M809.318 395.457l-512.95-316.382c-18.513-11.419-42.778-5.668-54.197 12.846-3.833 6.215-5.863 13.373-5.863 20.676v641.465c0 21.752 17.633 39.385 39.385 39.385 7.465 0 14.777-2.122 21.083-6.118l512.95-325.083c18.373-11.644 23.828-35.977 12.184-54.349-3.199-5.048-7.505-9.301-12.591-12.438z" />
<glyph unicode="&#xe90c;" glyph-name="forwards" d="M314.161 669.537v0c21.245 0 38.468-17.223 38.468-38.468v-395.635c0-21.245-17.223-38.468-38.468-38.468v0c-21.245 0-38.468 17.223-38.468 38.468v395.635c0 21.245 17.223 38.468 38.468 38.468v0zM774.098 405.347l-278.186-204.084c-17.538-12.866-42.186-9.079-55.052 8.459-4.957 6.756-7.629 14.917-7.629 23.297v400.276c0 21.752 17.633 39.385 39.385 39.385 8.128 0 16.057-2.515 22.699-7.199l278.186-196.192c17.776-12.536 22.023-37.109 9.487-54.884-2.454-3.48-5.456-6.538-8.889-9.057v0z" />
<glyph unicode="&#xe90d;" glyph-name="close" d="M512 488.929l-195.128 195.128c-15.274 15.274-40.134 15.197-55.514-0.184-15.488-15.488-15.463-40.235-0.184-55.514l195.128-195.128-195.128-195.128c-15.274-15.274-15.197-40.134 0.184-55.514 15.488-15.488 40.235-15.463 55.514-0.184l195.128 195.128 195.128-195.128c15.274-15.274 40.134-15.197 55.514 0.184 15.488 15.488 15.463 40.235 0.184 55.514l-195.128 195.128 195.128 195.128c15.274 15.274 15.197 40.134-0.184 55.514-15.488 15.488-40.235 15.463-55.514 0.184l-195.128-195.128z" />
<glyph unicode="&#xe90e;" glyph-name="backwards" d="M708.923 669.539v0c-21.752 0-39.385-17.633-39.385-39.385v-393.803c0-21.752 17.633-39.385 39.385-39.385s39.385 17.633 39.385 39.385v393.803c0 21.752-17.633 39.385-39.385 39.385v0zM249.902 405.347l278.186-204.084c17.538-12.866 42.186-9.079 55.052 8.459 4.957 6.756 7.629 14.917 7.629 23.297v400.276c0 21.752-17.633 39.385-39.385 39.385-8.128 0-16.057-2.515-22.699-7.199l-278.186-196.192c-17.776-12.536-22.023-37.109-9.487-54.884 2.454-3.48 5.456-6.538 8.889-9.057v0z" />
<glyph unicode="&#xe90f;" glyph-name="quiz-cuepoint-inner" d="M551.385 425.611l157.538 86.389v-184.377l-157.538-91.315v189.303zM315.077 327.623v184.377l157.538-86.389v-189.303l-157.538 91.315zM512 669.539l196.923-98.462-196.923-98.462-196.923 98.462 196.923 98.462z" />
<glyph unicode="&#xe910;" glyph-name="pause" d="M334.769 748.308v0c54.379 0 98.462-44.083 98.462-98.462v-433.231c0-54.379-44.083-98.462-98.462-98.462s-98.462 44.083-98.462 98.462v433.231c0 54.379 44.083 98.462 98.462 98.462v0zM689.231 748.308c54.379 0 98.462-44.083 98.462-98.462v-433.231c0-54.379-44.083-98.462-98.462-98.462s-98.462 44.083-98.462 98.462v433.231c0 54.379 44.083 98.462 98.462 98.462z" />
<glyph unicode="&#xe911;" glyph-name="type" horiz-adv-x="512" d="M480.063-3.73c0-23.24-18.907-42.029-42.029-42.029h-90.498c-40.055 0-76.399 16.399-102.667 42.904-26.268-26.505-62.612-42.904-102.667-42.904h-90.498c-23.122 0-42.029 18.788-42.029 42.029s18.907 42.029 42.029 42.029h90.498c33.391 0 60.639 27.188 60.639 60.639v-4.007c0-1.158 0-2.315 0.237-3.473-0.119 2.553-0.237 4.927-0.237 7.48v314.205h-52.521c-23.255 0-42.029 18.788-42.029 42.029s18.773 42.029 42.029 42.029h52.521v314.086c0 33.391-27.188 60.639-60.639 60.639h-90.498c-23.122 0-42.029 18.788-42.029 42.029s18.966 42.029 42.029 42.029h90.498c40.055 0 76.399-16.399 102.667-42.904 26.268 26.505 62.612 42.904 102.667 42.904h90.498c23.122 0 42.029-18.788 42.029-42.029s-18.907-42.029-42.029-42.029h-90.498c-33.391 0-60.639-27.188-60.639-60.639v-314.086h52.521c23.255 0 42.029-18.788 42.029-42.029s-18.773-42.029-42.029-42.029h-52.521v-314.205c0-2.553-0.119-4.927-0.237-7.48 0.237 1.158 0.237 2.315 0.237 3.473v4.007c0-33.391 27.188-60.639 60.639-60.639h90.498c23.062 0 42.029-18.788 42.029-42.029z" />
<glyph unicode="&#xe912;" glyph-name="trim" horiz-adv-x="2926" d="M2514.909 703.797l366.919-285.257-366.759-285.257v165.79l-730.384 8.193v238.933l730.384-8.193-0.16 165.79zM366.919 674.54l-0.16-148.786 730.384 7.353v-214.427l-730.384-7.353v-148.786l-366.759 256 366.919 256zM1389.714 967.111h102.4v-1024h-102.4v1024z" />
<glyph unicode="&#xe913;" glyph-name="external-link" d="M627.502 55.165h-515.448v515.448h302.545v112.054h-358.572c-31.384 0-56.027-24.643-56.027-56.027v-627.502c0-31.384 24.643-56.027 56.027-56.027h627.502c31.384 0 56.027 24.643 56.027 56.027v358.572h-112.054v-302.545zM732.299 566.603l-259.779-259.779c-23.212-23.212-60.846-23.212-84.059 0s-23.212 60.846 0 84.059l259.779 259.779h-91.862c-31.419 0-56.889 25.47-56.889 56.889v5.099c0 31.419 25.47 56.889 56.889 56.889h232.964c16.968 0 32.2-7.428 42.623-19.21 11.782-10.423 19.21-25.656 19.21-42.623v-232.964c0-31.419-25.47-56.889-56.889-56.889v0h-5.099c-31.419 0-56.889 25.47-56.889 56.889v91.862z" />
<glyph unicode="&#xe914;" glyph-name="checkbox" d="M0 796.869c0 94.022 76.966 170.242 170.242 170.242h683.515c94.022 0 170.242-76.966 170.242-170.242v-683.515c0-94.022-76.966-170.242-170.242-170.242h-683.515c-94.022 0-170.242 76.966-170.242 170.242v683.515zM372.931 459.402c-15.835 17.451-42.818 18.761-60.269 2.926s-18.761-42.818-2.926-60.269l132.741-146.286c17.807-19.624 49.008-18.44 65.276 2.477l265.481 341.333c14.467 18.6 11.116 45.407-7.484 59.874s-45.407 11.116-59.874-7.484l-234.317-301.264-98.629 108.693z" />
<glyph unicode="&#xe915;" glyph-name="radiobox" d="M341.333 455.111c0-94.291 76.382-170.667 170.667-170.667 94.291 0 170.667 76.382 170.667 170.667 0 94.291-76.382 170.667-170.667 170.667-94.291 0-170.667-76.382-170.667-170.667zM0 455.111c0 282.77 229.168 512 512 512 282.77 0 512-229.168 512-512 0-282.77-229.168-512-512-512-282.77 0-512 229.168-512 512z" />
<glyph unicode="&#xe916;" glyph-name="trim_edge" horiz-adv-x="1536" d="M1125.195 703.797l366.919-285.257-366.759-285.257v165.79l-730.384 8.193v238.933l730.384-8.193-0.16 165.79zM0 967.111h102.4v-1024h-102.4v1024z" />
<glyph unicode="&#xe917;" glyph-name="pointer" horiz-adv-x="731" d="M16.254 926.476l92.287-867.003 189.828 160.081 155.84-268.316 192.826 110.655-155.84 268.316 234.324 83.36z" />
<glyph unicode="&#xe918;" glyph-name="combined-shape" horiz-adv-x="1252" d="M906.159 28.444h77.206v-85.333h-268.19v85.333h190.984zM1162.159 455.111h89.397v-85.333h-89.397v85.333zM1162.159 625.778h89.397v-85.333h-89.397v85.333zM1162.159 540.444h89.397v-85.333h-89.397v85.333zM1162.159 711.111h89.397v-85.333h-89.397v85.333zM1162.159 796.444h89.397v-85.333h-89.397v85.333zM1072.762 369.778h89.397v-85.333h-89.397v85.333zM1072.762 284.444h89.397v-85.333h-89.397v85.333zM1072.762 881.778h89.397v-85.333h-89.397v85.333zM983.365 113.778h89.397v-85.333h-89.397v85.333zM983.365 28.444h89.397v-85.333h-89.397v85.333zM983.365 199.111h89.397v-85.333h-89.397v85.333zM983.365 881.778h89.397v-85.333h-89.397v85.333zM983.365 796.444h89.397v-85.333h-89.397v85.333zM893.968 369.778h89.397v-85.333h-89.397v85.333zM893.968 284.444h89.397v-85.333h-89.397v85.333zM893.968 455.111h89.397v-85.333h-89.397v85.333zM893.968 540.444h89.397v-85.333h-89.397v85.333zM893.968 967.111h89.397v-85.333h-89.397v85.333zM804.571 881.778h89.397v-85.333h-89.397v85.333zM804.571 967.111h89.397v-85.333h-89.397v85.333zM804.571 796.444h89.397v-85.333h-89.397v85.333zM715.175 369.778h89.397v-85.333h-89.397v85.333zM715.175 284.444h89.397v-85.333h-89.397v85.333zM715.175 455.111h89.397v-85.333h-89.397v85.333zM715.175 540.444h89.397v-85.333h-89.397v85.333zM715.175 967.111h89.397v-85.333h-89.397v85.333zM625.778 28.444h89.397v-85.333h-89.397v85.333zM625.778 967.111h89.397v-85.333h-89.397v85.333zM536.381 28.444h89.397v-85.333h-89.397v85.333zM536.381 369.778h89.397v-85.333h-89.397v85.333zM536.381 284.444h89.397v-85.333h-89.397v85.333zM536.381 455.111h89.397v-85.333h-89.397v85.333zM536.381 540.444h89.397v-85.333h-89.397v85.333zM536.381 881.778h89.397v-85.333h-89.397v85.333zM536.381 967.111h89.397v-85.333h-89.397v85.333zM536.381 796.444h89.397v-85.333h-89.397v85.333zM446.984 28.444h89.397v-85.333h-89.397v85.333zM446.984 967.111h89.397v-85.333h-89.397v85.333zM357.587 113.778h89.397v-85.333h-89.397v85.333zM357.587 28.444h89.397v-85.333h-89.397v85.333zM357.587 967.111h89.397v-85.333h-89.397v85.333zM268.19 199.111h89.397v-85.333h-89.397v85.333zM268.19 625.778h89.397v-85.333h-89.397v85.333zM268.19 881.778h89.397v-85.333h-89.397v85.333zM268.19 711.111h89.397v-85.333h-89.397v85.333zM268.19 796.444h89.397v-85.333h-89.397v85.333zM178.794 284.444h89.397v-85.333h-89.397v85.333zM178.794 796.444h89.397v-85.333h-89.397v85.333zM89.397 369.778h89.397v-85.333h-89.397v85.333zM89.397 455.111h89.397v-85.333h-89.397v85.333zM89.397 796.444h89.397v-85.333h-89.397v85.333zM0 625.778h89.397v-85.333h-89.397v85.333zM0 540.444h89.397v-85.333h-89.397v85.333zM0 711.111h89.397v-85.333h-89.397v85.333z" />
</font>
</defs>
</svg>
