<?xml version="1.0" encoding="utf-8"?>
<!-- Generator: Adobe Illustrator 18.1.1, SVG Export Plug-In . SVG Version: 6.00 Build 0)  -->
<!DOCTYPE svg PUBLIC "-//W3C//DTD SVG 1.1//EN" "http://www.w3.org/Graphics/SVG/1.1/DTD/svg11.dtd">
<svg version="1.1" id="Layer_1" xmlns="http://www.w3.org/2000/svg" xmlns:xlink="http://www.w3.org/1999/xlink" x="0px" y="0px"
	 viewBox="0 0 128 128" enable-background="new 0 0 128 128" xml:space="preserve">
<g>
	<g>
		<path stroke="#FFFFFF" stroke-width="4" stroke-miterlimit="10" d="M106.9,33.5L70.1,11.9c-3.2-1.8-7.3-1.8-10.5,0L21.8,33.5
			c-3.2,1.8-6.2,5.2-6.2,8.9v43.2c0,3.6,3,7,6.1,8.9L60,115.9c3.2,1.8,6.9,1.8,10.1,0l37-21.6c3.2-1.8,4.5-5.2,4.5-8.9v-43
			C111.6,38.7,110.1,35.3,106.9,33.5z"/>
	</g>
	<g>
		<path fill="none" stroke="#FFFFFF" stroke-width="4" stroke-miterlimit="10" d="M106.9,33.5L70.1,11.9c-3.2-1.8-7.3-1.8-10.5,0
			L21.8,33.5c-3.2,1.8-6.2,5.2-6.2,8.9v43.2c0,3.6,3,7,6.1,8.9L60,115.9c3.2,1.8,6.9,1.8,10.1,0l37-21.6c3.2-1.8,4.5-5.2,4.5-8.9
			v-43C111.6,38.7,110.1,35.3,106.9,33.5z"/>
	</g>
</g>
<path fill="#FFFFFF" d="M83.4,61h-18V44h-3.9v17H43.4v4h18.1v18.1h3.9V65h18.1L83.4,61L83.4,61z"/>
</svg>
