<?xml version="1.0" encoding="utf-8"?>
<!-- Generator: Adobe Illustrator 19.1.0, SVG Export Plug-In . SVG Version: 6.00 Build 0)  -->
<!DOCTYPE svg PUBLIC "-//W3C//DTD SVG 1.1//EN" "http://www.w3.org/Graphics/SVG/1.1/DTD/svg11.dtd">
<svg version="1.1" id="Layer_1" xmlns="http://www.w3.org/2000/svg" xmlns:xlink="http://www.w3.org/1999/xlink" x="0px" y="0px"
	 viewBox="-1042 604 128 128" style="enable-background:new -1042 604 128 128;" xml:space="preserve">
<style type="text/css">
	.st0{fill:#FFFFFF;}
</style>
<g>
	<g>
		<path d="M-935.1,637.5l-36.8-21.6c-3.2-1.8-7.3-1.8-10.5,0l-37.8,21.6c-3.2,1.8-6.2,5.2-6.2,8.9v43.2c0,3.6,3,7,6.1,8.9l38.3,21.4
			c3.2,1.8,6.9,1.8,10.1,0l37-21.6c3.2-1.8,4.5-5.2,4.5-8.9v-43C-930.4,642.7-931.9,639.3-935.1,637.5z"/>
	</g>
	<g>
		<path d="M-935.1,637.5l-36.8-21.6c-3.2-1.8-7.3-1.8-10.5,0l-37.8,21.6c-3.2,1.8-6.2,5.2-6.2,8.9v43.2c0,3.6,3,7,6.1,8.9l38.3,21.4
			c3.2,1.8,6.9,1.8,10.1,0l37-21.6c3.2-1.8,4.5-5.2,4.5-8.9v-43C-930.4,642.7-931.9,639.3-935.1,637.5z"/>
	</g>
</g>
<path class="st0" d="M-958.6,665h-18v-17h-3.9v17h-18.1v4h18.1v18.1h3.9V669h18.1L-958.6,665L-958.6,665z"/>
</svg>
