<?xml version="1.0" encoding="UTF-8"?>
<svg width="24px" height="24px" viewBox="0 0 24 24" version="1.1" xmlns="http://www.w3.org/2000/svg" xmlns:xlink="http://www.w3.org/1999/xlink">
    <!-- Generator: Sketch 46.2 (44496) - http://www.bohemiancoding.com/sketch -->
    <title>bulb</title>
    <desc>Created with Sketch.</desc>
    <defs></defs>
    <g id="Page-1" stroke="none" stroke-width="1" fill="none" fill-rule="evenodd" opacity="0.8">
        <g id="bulb" fill-rule="nonzero">
            <g id="np_light-bulb_709718_000000" transform="translate(3.000000, 1.000000)">
                <path d="M6.16600923,21.9999976 L11.44,21.9999976 C11.44,21.3325302 11.4324038,20.7739897 11.4237221,20.24 L6.17667917,20.2415343 C6.16908267,21.2082073 6.15063426,22 6.16582726,22 L6.16600923,21.9999976 Z" id="Shape" fill="#FFFFFF"></path>
                <path d="M0,8.76665884 C0,10.7441683 0.682453251,12.6851324 1.9220596,14.2298225 C2.53927393,14.9982067 3.28562992,15.6625799 4.12074158,16.1865297 C4.45217736,16.394552 5.20508397,16.5882623 5.4438591,16.8678109 C5.57304085,17.0186254 5.62262644,17.6986019 5.63958923,18.48 L11.9277796,18.4787998 C11.9251701,18.1589647 11.9264748,17.8209169 11.9329991,17.4399866 C11.9473526,16.6741984 13.0277636,16.4388837 13.5653751,16.0800536 C14.3678506,15.545686 15.0933622,14.8943267 15.6975154,14.1428505 C16.9227913,12.6190958 17.6,10.7196363 17.6,8.76688983 C17.6,3.92379895 13.6606113,-6.42091632e-16 8.79859117,-6.42091632e-16 C3.93938873,-0.00023098791 0,3.9248993 0,8.76665884 Z" id="Shape" stroke="#FFFFFF" stroke-width="2"></path>
            </g>
        </g>
    </g>
</svg>