<?xml version="1.0" encoding="utf-8"?>
<!-- Generator: Adobe Illustrator 19.1.0, SVG Export Plug-In . SVG Version: 6.00 Build 0)  -->
<!DOCTYPE svg PUBLIC "-//W3C//DTD SVG 1.1//EN" "http://www.w3.org/Graphics/SVG/1.1/DTD/svg11.dtd">
<svg version="1.1" id="Layer_1" xmlns:ev="http://www.w3.org/2001/xml-events"
	 xmlns="http://www.w3.org/2000/svg" xmlns:xlink="http://www.w3.org/1999/xlink" x="0px" y="0px" viewBox="-1043 599 127 137"
	 style="enable-background:new -1043 599 127 137;" xml:space="preserve">
<style type="text/css">
	.st0{fill:#FFFFFF;}
	.st1{fill:#21C774;stroke:#FFFFFF;stroke-width:2;stroke-miterlimit:10;}
</style>
<g>
	<g>
		<path class="st0" d="M-1027,641.8c0-3.6,3-6.9,6.1-8.7l37.1-21.2c3.1-1.8,7.2-1.8,10.3,0l36.2,21.2c3.1,1.8,4.6,5.1,4.6,8.7v42.3
			c0,3.6-1.4,6.9-4.5,8.7l-36.3,21.2c-3.1,1.8-6.8,1.8-9.9,0l-37.6-21.2c-3.1-1.8-6-5.1-6-8.7V641.8z"/>
	</g>
</g>
<path class="st1" d="M-951.1,618.7l-10.3,9.8l-5.5-5.2c-0.9-0.9-2.5-0.9-3.4,0c-0.9,0.9-0.9,2.3,0,3.2l7.2,6.9
	c0.5,0.4,1.1,0.7,1.7,0.7c0.6,0,1.2-0.2,1.7-0.7l12-11.4c0.9-0.9,0.9-2.3,0-3.2C-948.6,617.8-950.2,617.8-951.1,618.7z"/>
</svg>
