<?xml version="1.0" encoding="utf-8"?>
<!-- Generator: Adobe Illustrator 19.1.0, SVG Export Plug-In . SVG Version: 6.00 Build 0)  -->
<!DOCTYPE svg PUBLIC "-//W3C//DTD SVG 1.1//EN" "http://www.w3.org/Graphics/SVG/1.1/DTD/svg11.dtd">
<svg version="1.1" id="Layer_1" xmlns:ev="http://www.w3.org/2001/xml-events"
	 xmlns="http://www.w3.org/2000/svg" xmlns:xlink="http://www.w3.org/1999/xlink" x="0px" y="0px" viewBox="-1044 599 124 138"
	 style="enable-background:new -1044 599 124 138;" xml:space="preserve">
<style type="text/css">
	.st0{fill-opacity:0.102;stroke:#FFFFFF;stroke-width:2.9163;stroke-dasharray:11.6653,5.8327;}
	.st1{fill:#FFFFFF;}
</style>
<g transform="scale(NaN)">
	<path class="st0" d="M-1042,641.3c0-4.5,3.8-8.7,7.8-10.9l47.3-26.7c3.9-2.3,9.2-2.3,13.1,0l46,26.7c3.9,2.3,5.9,6.4,5.9,10.9v53.4
		c0,4.5-1.7,8.7-5.7,10.9l-46.2,26.7c-3.9,2.3-8.6,2.3-12.6,0l-47.9-26.7c-3.9-2.3-7.7-6.4-7.7-10.9V641.3z"/>
	<path class="st1" d="M-953,665.1h-5.1c-0.8,0-1.5-0.6-1.5-1.4c0-0.8,0.6-1.4,1.5-1.4h5.1c0.8,0,1.5,0.6,1.5,1.4
		C-951.6,664.5-952.2,665.1-953,665.1z M-963.8,648.4c-0.3,0.3-0.6,0.4-1,0.4c-0.4,0-0.7-0.1-1-0.4c-0.6-0.6-0.6-1.5,0-2l3.4-3.4
		c0.6-0.6,1.5-0.6,2.1,0c0.6,0.6,0.6,1.5,0,2L-963.8,648.4z M-969,674.7c-1.6,2.8-3.2,5.4-3.2,7.9v1.1c0,0.8-0.6,1.4-1.5,1.4h-15.2
		c-0.8,0-1.5-0.6-1.5-1.4v-1.1c0-2.3-1.5-4.6-3-7.1c-2.1-3.3-4.4-7-4.4-11.9c0-8.9,7.3-16.1,16.3-16.1c9,0,16.3,7.2,16.3,16.1
		C-965,667.9-967,671.3-969,674.7z M-981.3,650.4c-7.4,0-13.4,6-13.4,13.3c0,4.1,2,7.3,4,10.4c1.6,2.6,3.3,5.3,3.4,8.2h12.3
		c0.1-3.2,1.8-6,3.5-9c1.8-3,3.6-6.2,3.6-9.6C-967.9,656.4-973.9,650.4-981.3,650.4z M-976.3,658.6c-2.7-2.7-7.2-2.7-9.9,0
		c-2.7,2.7-2.7,7.1,0,9.8c0.6,0.6,0.6,1.5,0,2c-0.3,0.3-0.7,0.4-1,0.4c-0.4,0-0.7-0.1-1-0.4c-3.9-3.8-3.9-10.1,0-13.9s10.2-3.8,14,0
		c0.6,0.6,0.6,1.5,0,2C-974.9,659.2-975.8,659.2-976.3,658.6z M-981.3,642.5c-0.8,0-1.5-0.6-1.5-1.4v-5.3c0-0.8,0.6-1.4,1.5-1.4
		c0.8,0,1.5,0.6,1.5,1.4v5.3C-979.9,641.9-980.5,642.5-981.3,642.5z M-997.6,649c-0.4,0-0.7-0.1-1-0.4l-3.1-3.1
		c-0.6-0.6-0.6-1.5,0-2c0.6-0.6,1.5-0.6,2.1,0l3.1,3.1c0.6,0.6,0.6,1.5,0,2C-996.9,648.8-997.3,649-997.6,649z M-998.6,678.7
		c0.6-0.6,1.5-0.6,2.1,0s0.6,1.5,0,2l-3.4,3.6c-0.3,0.3-0.7,0.4-1,0.4c-0.4,0-0.7-0.1-1-0.4c-0.6-0.5-0.6-1.5,0-2L-998.6,678.7z
		 M-1004.3,665.1h-4.9c-0.8,0-1.5-0.6-1.5-1.4c0-0.8,0.6-1.4,1.5-1.4h4.9c0.8,0,1.5,0.6,1.5,1.4
		C-1002.8,664.5-1003.5,665.1-1004.3,665.1z M-987.7,688.3h13c0.8,0,1.5,0.6,1.5,1.4c0,0.8-0.7,1.4-1.5,1.4h-13
		c-0.8,0-1.5-0.6-1.5-1.4C-989.1,688.9-988.5,688.3-987.7,688.3z M-985.1,694h7.9c0.8,0,1.5,0.6,1.5,1.4c0,0.8-0.7,1.4-1.5,1.4h-7.9
		c-0.8,0-1.5-0.6-1.5-1.4C-986.6,694.7-985.9,694-985.1,694z M-963.7,678.9l3.2,3.1c0.6,0.6,0.6,1.5,0,2c-0.3,0.3-0.7,0.4-1,0.4
		c-0.4,0-0.7-0.1-1-0.4l-3.2-3.1c-0.6-0.6-0.6-1.5,0-2C-965.2,678.3-964.3,678.3-963.7,678.9z"/>
</g>
</svg>
