<?xml version="1.0" encoding="utf-8"?>
<!-- Generator: Adobe Illustrator 19.1.0, SVG Export Plug-In . SVG Version: 6.00 Build 0)  -->
<!DOCTYPE svg PUBLIC "-//W3C//DTD SVG 1.1//EN" "http://www.w3.org/Graphics/SVG/1.1/DTD/svg11.dtd">
<svg version="1.1" id="Layer_1" xmlns:ev="http://www.w3.org/2001/xml-events"
	 xmlns="http://www.w3.org/2000/svg" xmlns:xlink="http://www.w3.org/1999/xlink" x="0px" y="0px" viewBox="-1044 599 124 138"
	 style="enable-background:new -1044 599 124 138;" xml:space="preserve">
<style type="text/css">
	.st0{opacity:0.15;enable-background:new    ;}
	.st1{opacity:0.7;fill:none;stroke:#022A42;stroke-width:2.9134;stroke-dasharray:11.6536,5.8268;}
	.st2{opacity:0.9;fill:#1B3D57;enable-background:new    ;}
</style>
<path class="st0" d="M-1042,641.3c0-4.5,3.8-8.7,7.7-10.9l47.2-26.7c3.9-2.2,9.2-2.2,13.1,0l46,26.7c3.9,2.2,5.9,6.4,5.9,10.9v53.4
	c0,4.5-1.8,8.7-5.7,10.9l-46.1,26.7c-3.9,2.2-8.6,2.2-12.6,0l-47.8-26.7c-3.9-2.2-7.7-6.5-7.7-10.9V641.3L-1042,641.3z"/>
<path class="st1" d="M-1041.9,641.2c0-4.5,3.8-8.7,7.7-10.9l47.2-26.7c3.9-2.2,9.2-2.2,13.1,0l46,26.7c3.9,2.2,5.9,6.4,5.9,10.9
	v53.4c0,4.5-1.8,8.7-5.7,10.9l-46.1,26.7c-3.9,2.2-8.6,2.2-12.6,0l-47.8-26.7c-3.9-2.2-7.7-6.5-7.7-10.9V641.2L-1041.9,641.2z"/>
<path class="st2" d="M-969,674.7c-1.7,2.8-3.1,5.4-3.1,7.9v1.1c0,0.8-0.7,1.5-1.5,1.5h-15.1c-0.8,0-1.5-0.7-1.5-1.5v-1.1
	c0-2.3-1.5-4.6-3-7.1c-2-3.3-4.4-7-4.4-11.9c0-8.9,7.3-16.1,16.3-16.1s16.3,7.3,16.3,16.1C-965,667.8-967.1,671.2-969,674.7z
	 M-981.3,650.4c-7.4,0-13.4,6-13.4,13.2c0,4.1,2,7.3,3.9,10.3c1.7,2.6,3.3,5.2,3.4,8.2h12.3c0.1-3.2,1.8-6,3.5-9
	c1.8-3,3.6-6.2,3.6-9.6C-968,656.3-973.9,650.4-981.3,650.4z M-974.3,658.5c-0.6,0.6-1.5,0.6-2,0c-2.7-2.7-7.2-2.7-10,0
	c-2.7,2.7-2.7,7.2,0,9.9c0.6,0.6,0.6,1.5,0,2c-0.3,0.3-0.7,0.4-1.1,0.4c-0.4,0-0.8-0.1-1.1-0.4c-3.9-3.9-3.9-10.1,0-13.9
	c3.9-3.9,10.1-3.9,14,0C-973.7,657-973.7,657.9-974.3,658.5z M-987.7,688.2h13c0.8,0,1.5,0.7,1.5,1.5c0,0.8-0.7,1.5-1.5,1.5h-13
	c-0.8,0-1.5-0.7-1.5-1.5C-989.1,688.8-988.4,688.2-987.7,688.2z M-985.1,693.9h7.9c0.8,0,1.5,0.7,1.5,1.5c0,0.8-0.7,1.5-1.5,1.5
	h-7.9c-0.8,0-1.5-0.7-1.5-1.5C-986.6,694.7-985.9,693.9-985.1,693.9z"/>
</svg>
