<?xml version="1.0" encoding="utf-8"?>
<svg xmlns="http://www.w3.org/2000/svg"
	xmlns:xlink="http://www.w3.org/1999/xlink"
	width="85px" height="96px" viewBox="0 0 85 96">
<path fillRule="evenodd" d="M 80.03 24.78C 80.03 24.78 45.89 44.88 45.89 44.88 44.02 45.98 40.96 45.98 39.09 44.88 39.09 44.88 4.94 24.79 4.94 24.79 3.07 23.69 3.07 21.89 4.95 20.79 4.95 20.79 39.09 0.8 39.09 0.8 40.96-0.3 44.02-0.3 45.89 0.8 45.89 0.8 80.03 20.79 80.03 20.79 81.9 21.88 81.9 23.68 80.03 24.78ZM 41.67 53.45C 41.67 53.45 41.68 53.45 41.68 53.45 41.68 53.45 41.68 93.56 41.68 93.56 41.68 95.75 40.15 96.64 38.27 95.55 38.27 95.55 3.38 75.5 3.38 75.5 1.51 74.39-0.02 71.71-0.02 69.52-0.02 69.52-0.02 29.29-0.02 29.29-0.02 27.11 1.51 26.21 3.37 27.31 3.37 27.31 38.27 47.46 38.27 47.46 40.14 48.56 41.67 51.25 41.67 53.45Z" fill="rgb(255,255,255)" opacity="0.49"/><path fillRule="evenodd" d="M 81.6 27.31C 81.6 27.31 48.21 47.46 48.21 47.46 46.34 48.56 44.81 51.26 44.81 53.45 44.81 53.45 44.81 93.56 44.81 93.56 44.81 95.75 46.34 96.64 48.22 95.55 48.22 95.55 81.6 75.5 81.6 75.5 83.47 74.4 85 71.71 85 69.52 85 69.52 85 29.29 85 29.29 85 27.1 83.47 26.21 81.6 27.31Z" fill="rgb(255,255,255)" opacity="0.22"/></svg>