<?xml version="1.0" encoding="UTF-8"?>
<svg width="24px" height="24px" viewBox="0 0 24 24" version="1.1" xmlns="http://www.w3.org/2000/svg" xmlns:xlink="http://www.w3.org/1999/xlink">
    <!-- Generator: Sketch 46.2 (44496) - http://www.bohemiancoding.com/sketch -->
    <title>shuffle</title>
    <desc>Created with Sketch.</desc>
    <defs></defs>
    <g id="Page-1" stroke="none" stroke-width="1" fill="none" fill-rule="evenodd" opacity="0.8">
        <g id="shuffle" fill="#FFFFFF">
            <g id="Shuffle-icon" transform="translate(0.000000, 3.000000)">
                <path d="M23.2068571,4.49485714 L23.1908571,4.51257143 C23.172,4.53257143 23.1611429,4.55657143 23.1411429,4.57542857 L21.3005714,6.87542857 C21.1114286,7.11028571 20.8348571,7.23257143 20.5548571,7.23257143 C20.3468571,7.23257143 20.1371429,7.16514286 19.9611429,7.02457143 C19.5514286,6.696 19.484,6.09714286 19.8137143,5.68514286 L20.4811429,4.84914286 C18.0931429,4.87428571 15.4737143,6.07942857 13.7891429,7.94 C13.6011429,8.14857143 13.3411429,8.25314286 13.0817143,8.25314286 C12.8531429,8.25314286 12.6245714,8.17085714 12.4451429,8.008 C12.0542857,7.65542857 12.0245714,7.05314286 12.3771429,6.66228571 C14.4034286,4.42171429 17.5765714,2.972 20.4788571,2.94571429 L19.8137143,2.11428571 C19.4851429,1.70228571 19.5502857,1.104 19.9622857,0.774857143 C20.3731429,0.445142857 20.972,0.512 21.3017143,0.922857143 L23.1182857,3.19428571 C23.3097143,3.368 23.4354286,3.61371429 23.4354286,3.892 C23.4354286,4.116 23.3457143,4.31371429 23.2171429,4.47542857 C23.2125714,4.48171429 23.2102857,4.48742857 23.2068571,4.49485714 Z M20.4731429,13.4142857 L19.8137143,12.5902857 C19.484,12.1794286 19.5502857,11.5811429 19.9622857,11.2525714 C20.3731429,10.9211429 20.972,10.988 21.3005714,11.4 L23.1171429,13.6714286 C23.3085714,13.8451429 23.4342857,14.0891429 23.436,14.3702857 C23.436,14.5925714 23.3468571,14.7908571 23.2188571,14.9525714 C23.2137143,14.9588571 23.2125714,14.9657143 23.2074286,14.972 L23.1925714,14.9908571 C23.1742857,15.0108571 23.1622857,15.0337143 23.1422857,15.0537143 L21.3017143,17.3525714 C21.1114286,17.5874286 20.836,17.7097143 20.5548571,17.7097143 C20.3468571,17.7097143 20.1371429,17.6405714 19.9611429,17.5028571 C19.5502857,17.1754286 19.4822857,16.5754286 19.812,16.1634286 L20.4862857,15.3228571 C16.3417143,15.3034286 13.3091429,12.5234286 10.3771429,9.83428571 C7.58114286,7.26857143 4.94057143,4.84571429 1.51657143,4.84571429 C0.990285714,4.84571429 0.564,4.41942857 0.564,3.89314286 C0.564,3.36685714 0.990285714,2.94057143 1.51657143,2.94057143 C5.68228571,2.94057143 8.72457143,5.73142857 11.6651429,8.43085714 C14.4462857,10.9794286 17.076,13.3891429 20.4731429,13.4142857 Z M1.53657143,12.9405714 C3.87828571,12.9405714 6.972,11.8257143 8.73371429,10.352 C9.136,10.0142857 9.73771429,10.0674286 10.076,10.4714286 C10.4125714,10.876 10.3588571,11.476 9.95657143,11.8131429 C7.85885714,13.5702857 4.31657143,14.8457143 1.53657143,14.8457143 C1.01028571,14.8457143 0.584571429,14.4194286 0.584571429,13.8931429 C0.584571429,13.3668571 1.01028571,12.9405714 1.53657143,12.9405714 Z" id="Shape"></path>
            </g>
        </g>
    </g>
</svg>