<?xml version="1.0" encoding="UTF-8"?>
<svg width="30px" height="15px" viewBox="0 0 30 15" version="1.1" xmlns="http://www.w3.org/2000/svg" xmlns:xlink="http://www.w3.org/1999/xlink">
    <!-- Generator: Sketch 49.1 (51147) - http://www.bohemiancoding.com/sketch -->
    <title>Beta</title>
    <desc>Created with Sketch.</desc>
    <defs></defs>
    <g id="Beta" stroke="none" stroke-width="1" fill="none" fill-rule="evenodd">
        <g id="NavBar-Beta" transform="translate(-48.000000, -9.000000)">
            <g id="Beta" transform="translate(48.000000, 9.000000)">
                <path d="M3.9418168,0 L26.9157015,-8.8817842e-16 C28.5725558,-1.19253761e-15 29.9157015,1.34314575 29.9157015,3 C29.9157015,3.10464274 29.9102265,3.20921382 29.8992988,3.31328442 L29.0417805,11.4799511 C28.8814236,13.0071271 27.5937551,14.1666667 26.0581832,14.1666667 L3.08429846,14.1666667 C1.42744421,14.1666667 0.0842984592,12.8235209 0.0842984592,11.1666667 C0.0842984592,11.0620239 0.0897735083,10.9574528 0.100701155,10.8533822 L0.958219498,2.68671558 C1.11857641,1.15953954 2.40624492,-6.06098441e-16 3.9418168,-8.8817842e-16 Z" id="Rectangle" fill="#00AB82"></path>
                <path d="M9.89894242,4.25669741 C9.89894242,5.17896355 9.44457501,6.14514712 8.19506463,6.47452789 C8.92205249,6.69411506 9.27418723,7.23210365 9.27418723,8.00065876 C9.27418723,10.0977163 7.68390129,10.7345191 5.52565609,10.7345191 C4.65099882,10.7345191 3.99216608,10.7125604 3.33333333,10.6906017 L4.81002742,2.53293808 C5.3666275,2.52195872 6.11633373,2.5 6.94555425,2.5 C8.79710145,2.5 9.89894242,2.77448397 9.89894242,4.25669741 Z M8.50176263,8.00065876 C8.50176263,7.27602108 8.09283196,6.75999122 6.68429299,6.75999122 L4.79866823,6.75999122 L4.19663141,10.0428195 C4.58284371,10.0647782 5.01449275,10.0867369 5.53701528,10.0867369 C7.2181747,10.0867369 8.50176263,9.68050066 8.50176263,8.00065876 Z M9.12651782,4.3115942 C9.12651782,3.31247255 8.32001567,3.15876153 6.82060321,3.15876153 C6.33215825,3.15876153 5.87779083,3.16974089 5.44614179,3.18072025 L4.91226009,6.12318841 L6.79788484,6.12318841 C8.49040345,6.12318841 9.12651782,5.34365393 9.12651782,4.3115942 Z M16.277125,6.58432148 C16.277125,6.99055775 16.220329,7.41875274 16.1067372,7.95674133 L11.7334508,7.95674133 L11.7107325,8.08849363 C11.6539365,8.37395696 11.619859,8.62648221 11.619859,8.85704875 C11.619859,9.75735617 12.0855856,10.2075099 13.3805327,10.2075099 C14.0620838,10.2075099 14.9481003,10.1306544 15.5387779,10.0428195 L15.4251861,10.6137462 C14.9594595,10.7125604 14.1643165,10.8333333 13.2555817,10.8333333 C11.5857814,10.8333333 10.9042303,10.1416337 10.9042303,8.83509003 C10.9042303,8.51668863 10.9496671,8.15436978 11.0178222,7.77009223 L11.0973365,7.34189723 C11.438112,5.47540624 12.4604387,4.57509881 14.0848022,4.57509881 C15.5047004,4.57509881 16.277125,5.22288098 16.277125,6.58432148 Z M15.5387779,6.58432148 C15.5387779,5.79380764 15.1866432,5.20092227 14.0393655,5.20092227 C12.5513122,5.20092227 12.0628672,6.21102328 11.8697611,7.25406236 L11.8470427,7.35287659 L15.4592636,7.35287659 C15.5047004,7.04545455 15.5387779,6.79292929 15.5387779,6.58432148 Z M21.4966706,4.72880984 L21.3830787,5.33267457 L19.6110458,5.33267457 L18.8954172,9.27426438 C18.8499804,9.51581028 18.827262,9.69148002 18.827262,9.81225296 C18.827262,10.1635924 18.9976498,10.2514273 19.4860948,10.2514273 C19.7700744,10.2514273 20.2130826,10.2294686 20.4970623,10.1965305 L20.4061888,10.701581 C20.1790051,10.7564778 19.7019193,10.8333333 19.3043478,10.8333333 C18.4410497,10.8333333 18.1002742,10.5039526 18.1002742,9.83421168 C18.1002742,9.65854194 18.1229926,9.46091348 18.1684293,9.19740887 L18.8726988,5.33267457 L17.5550333,5.27777778 L17.6459068,4.72880984 L18.9862906,4.72880984 L19.2816295,3.12582345 L20.0199765,3.12582345 L19.7246377,4.72880984 L21.4966706,4.72880984 Z M26.4208774,10.6906017 L25.7052487,10.6906017 L25.7506855,10.3502415 C25.2963181,10.5808081 24.6034078,10.8333333 23.8423423,10.8333333 C22.6155503,10.8333333 21.9907951,10.1306544 21.9907951,8.87900747 C21.9907951,8.61550285 22.0135135,8.30808081 22.0816686,7.9896794 L22.229338,7.243083 C22.6609871,5.09112868 23.6946729,4.57509881 25.3190364,4.57509881 C25.841559,4.57509881 26.6934978,4.60803689 27.5,4.71783048 L26.4208774,10.6906017 Z M25.841559,9.77931489 L26.6594203,5.25581906 C26.091461,5.21190162 25.4894242,5.18994291 25.2168038,5.18994291 C23.9900118,5.18994291 23.2630239,5.60715854 22.9449667,7.37483531 L22.8086565,8.13241107 C22.7632197,8.39591568 22.7291422,8.64844093 22.7291422,8.86802811 C22.7291422,9.77931489 23.1607912,10.2184892 24.0922444,10.2184892 C24.7283588,10.2184892 25.3303956,10.0098814 25.841559,9.77931489 Z" stroke="#FFFFFF" fill="#FFFFFF"></path>
            </g>
        </g>
    </g>
</svg>