<?xml version="1.0" encoding="UTF-8"?>
<svg width="24px" height="24px" viewBox="0 0 24 24" version="1.1" xmlns="http://www.w3.org/2000/svg" xmlns:xlink="http://www.w3.org/1999/xlink">
    <!-- Generator: Sketch 48.2 (47327) - http://www.bohemiancoding.com/sketch -->
    <title>comcast</title>
    <desc>Created with Sketch.</desc>
    <defs></defs>
    <g id="Page-1" stroke="none" stroke-width="1" fill="none" fill-rule="evenodd">
        <g id="comcast" fill="#999999" fill-rule="nonzero">
            <path d="M16.7223689,7.38088801 C17.082416,8.10733546 16.8709308,9.0591931 16.4951311,9.71140314 L13.5876006,16.2529114 L13.5624487,16.2835463 L12.5114628,9.64743538 C12.4271298,9.01019467 13.107973,8.73830994 13.5087506,8.43213501 C13.4883853,8.33848969 13.3853407,8.34310233 13.3205026,8.29949982 L12.3380971,8.28923017 L12.3082455,8.25955261 C12.3138155,7.43571751 12.7573253,6.67497986 13.5087506,6.27515962 C14.2937699,5.82155424 15.3994983,5.94487711 16.0804285,6.52659207 C16.3569259,6.77323782 16.5898207,7.05983078 16.7223689,7.38088801 Z M11.3656131,7.15356313 C11.6032077,7.59333059 11.7405425,8.09254019 11.6569928,8.64536087 L10.47137,16.2435991 C10.4778103,16.2528244 10.4667573,16.263094 10.457358,16.2676197 L10.1503128,15.6563142 L7.17872754,9.02020323 C6.90223017,8.16573323 7.1583623,7.27236039 7.78080775,6.65992351 C8.40795287,6.0235531 9.43961791,5.8509707 10.2597977,6.1961355 C10.6939952,6.3836002 11.1086977,6.728765 11.3656131,7.15356313 Z M21.0234391,10.3523862 C21.4232594,11.0341867 21.3333564,12.0659388 20.8888022,12.6986539 C20.6134362,13.143034 20.1586995,13.3647889 19.7736745,13.6560815 L13.6164079,17.8827403 L13.6023089,17.8827403 L13.6710633,17.6805673 L16.9348985,10.3134833 C17.4238385,9.44508839 18.3571585,9.00532093 19.3442637,9.13795612 C20.0205813,9.26145306 20.6968989,9.70113348 21.0234391,10.3523862 Z M7.03590973,10.3134833 L10.4323801,17.881957 L10.3777247,17.881957 L3.53012847,13.162529 C2.83327155,12.575331 2.54763593,11.6957961 2.78418609,10.8070359 C2.96138113,10.1409009 3.51428884,9.51845549 4.17206886,9.27154865 C5.24907703,8.87729839 6.46246272,9.29661357 7.03590973,10.3134833 Z M22.8102718,15.695217 C23.1516073,16.4160945 23.0171444,17.4031997 22.5291618,18.0163328 C22.0450086,18.6037048 21.3973241,18.924675 20.6374568,18.9042227 L13.3361682,18.9089224 L19.4526173,14.6534564 C20.0502589,14.2684314 20.958514,14.1987196 21.610724,14.5104645 C22.1143722,14.7081118 22.5885169,15.2016644 22.8102718,15.695217 Z M1.18925666,15.695217 C1.41196889,15.2016644 1.88593952,14.7081118 2.38984879,14.5104645 C3.04118852,14.1987196 3.94935662,14.2684314 4.54682419,14.6534564 L10.6633603,18.9089224 L3.36207168,18.9042227 C2.601247,18.924675 1.95556429,18.6037048 1.47132401,18.0163328 C0.982384057,17.4031997 0.848878559,16.4160945 1.18925666,15.695217 Z" id="Combined-Shape"></path>
        </g>
    </g>
</svg>