<?xml version="1.0" encoding="UTF-8"?>
<svg width="24px" height="24px" viewBox="0 0 24 24" version="1.1" xmlns="http://www.w3.org/2000/svg" xmlns:xlink="http://www.w3.org/1999/xlink">
    <!-- Generator: Sketch 48.2 (47327) - http://www.bohemiancoding.com/sketch -->
    <title>uverse</title>
    <desc>Created with Sketch.</desc>
    <defs></defs>
    <g id="Page-1" stroke="none" stroke-width="1" fill="none" fill-rule="evenodd">
        <g id="uverse" fill="#999999" fill-rule="nonzero">
            <path d="M13.628667,22.8681348 C13.2128781,22.9376837 11.4382006,22.9959872 11.0661035,22.9522954 C8.99632692,22.7101279 7.46310071,22.1726464 5.9386845,21.1544827 C5.01528208,20.5377112 4.96987119,20.4758264 5.71241796,20.8455598 C7.00562543,21.4889762 8.42117012,21.8633653 10.1646903,22.0228048 C10.9085979,22.0909211 12.9986447,22.0503091 13.7168386,21.9539722 C16.274245,21.6108836 18.3901488,20.7501539 20.0492935,19.3780146 L20.4237542,19.068447 L20.0894757,19.4427645 C19.4853104,20.119487 18.5000947,20.916756 17.6331336,21.4313888 C16.3825436,22.1734342 15.1570943,22.613003 13.628667,22.8681348 Z M14.4065254,21.1269783 L14.4066687,21.1269783 L14.4066687,21.1271216 C13.9104437,21.1955244 11.9817703,21.2558335 11.6154033,21.2141472 C11.5273033,21.2039763 11.2288378,21.1730339 10.9519317,21.1451713 C8.89769792,20.9382438 6.01245928,20.0590346 4.59548208,19.2078312 C3.41186238,18.4970864 2.4075942,17.4744103 1.99015786,16.5549473 C1.92275779,16.406395 1.87505487,16.277325 1.88415138,16.2683001 C1.89324788,16.259132 1.97855445,16.3704388 2.07367378,16.5154098 C2.34785812,16.9335624 3.24490217,17.7938623 3.76784362,18.1400308 C5.00998175,18.9622973 6.36428621,19.443051 8.25213276,19.7320619 C9.06007407,19.8558317 11.0658886,19.9086917 11.8006282,19.8257488 C17.0758116,19.2306083 20.7745068,17.6092821 22.3655352,15.1939817 C22.5182418,14.9621999 22.6430859,14.7874325 22.6430859,14.8054822 C22.6430859,14.9410703 22.1747951,16.1971755 21.9585562,16.6420446 C21.6368122,17.3035823 21.3774545,17.6536902 20.8080994,18.1951828 C19.1745251,19.7487508 16.9252538,20.7789476 14.4065254,21.1269783 Z M15.2073041,18.0877438 L15.2073041,18.0878154 C14.3010203,18.2105108 12.3025116,18.2456791 11.4969339,18.1533532 C9.18627908,17.8881221 6.37015954,17.1848264 4.79352797,16.4790954 C3.14892333,15.7428517 1.80944545,14.6246982 1.27468572,13.5412833 C1.06267275,13.1118854 1,12.8005988 1,12.1807474 L1,11.7459059 L1.15284989,12.1892709 C1.70773653,13.798922 3.24683607,15.1543009 5.30049682,15.8416956 C8.17613757,16.8042775 10.267975,16.8701018 13.9946043,16.1155218 C16.8721073,15.5329159 18.7313034,14.8898577 20.23459,13.9575736 C21.2483844,13.3287689 22.1476489,12.4263529 22.5512614,11.6324503 C22.6773948,11.384696 22.870212,10.8283052 22.8757272,10.6970147 C22.8786639,10.6267496 22.8906254,10.6378516 22.9218543,10.7392741 C22.9450612,10.8147679 22.9762901,11.2266174 22.9912599,11.6543679 C23.0285055,12.7141462 22.9515075,13.2280628 22.6673671,13.8176164 C22.5549143,14.0509739 22.3970506,14.3394118 22.316543,14.4581677 C21.0090103,16.3909954 18.5789549,17.6315578 15.2073041,18.0877438 Z M16.1453899,13.9717556 C15.4216807,14.0800541 13.6905519,14.1194484 12.5074336,14.0541255 C8.74334388,13.8469114 5.66070399,13.1649603 3.7165594,12.1096944 C2.67640659,11.544995 1.82591944,10.7303924 1.47423576,9.96220357 C1.30605791,9.59497705 1.33334742,9.19021851 1.57472704,8.47417336 L1.75207303,7.94793712 L1.80729667,8.3037751 C1.87218983,8.72192771 1.93128128,8.91753832 2.08721109,9.22911143 C2.59081352,10.2350986 3.93451732,11.186865 5.64308399,11.7474817 C8.35054688,12.6361455 11.5321023,12.6272639 14.8342759,11.7219112 C17.4211922,11.0125989 19.5114539,10.1013729 20.5822626,9.21593225 C21.3566829,8.57566741 21.7115898,7.99191549 21.7706812,7.26154514 L21.7964666,6.94130528 L22.0348379,7.48043421 C22.3426865,8.17642407 22.5859284,8.93200677 22.6213116,9.30231321 C22.6586288,9.69203029 22.5286992,10.1860348 22.2498592,10.7149929 C21.365278,12.3926887 19.288697,13.5005997 16.1453899,13.9717556 Z M14.9786023,9.47865642 L14.978459,9.47865642 C13.5169304,9.57800169 11.7170406,9.47836992 9.20712225,9.15913283 C7.10002851,8.8913232 5.7475147,8.54443847 4.49735445,7.95123192 C3.33199939,7.39842243 2.6196788,6.70271907 2.71236284,6.2083564 C2.77088129,5.89642516 3.51120765,4.91522055 4.18993565,4.25002987 L4.50809835,3.93824188 L4.32151262,4.31363376 C4.14975346,4.65915759 4.13499851,4.71846392 4.13435387,5.06019158 C4.13349436,5.55448262 4.27717612,5.85516858 4.72705904,6.30025256 C5.24649081,6.81416913 5.96053043,7.18311467 6.92497456,7.43609771 C9.81615815,8.19418732 14.3599685,7.62898653 17.497832,6.12097268 C18.2563514,5.75625307 18.6957053,5.46924768 19.085494,5.08304027 C19.4244999,4.74725757 19.5746996,4.47615316 19.5762754,4.19716988 L19.5772065,4.01559796 L19.8554735,4.28870791 C20.2365239,4.66273889 20.6929964,5.21332797 20.8808714,5.52533084 C21.1900092,6.03845952 21.1868577,6.55810617 20.870987,7.16026597 C20.201642,8.43671297 18.0901075,9.26743134 14.9786023,9.47865642 Z M13.628667,5.34139527 C13.039185,5.41251989 10.8078202,5.46845979 10.2653248,5.42555582 C7.79243707,5.23073309 5.91784133,4.5936198 5.55262035,3.8239984 C5.44475159,3.59680072 5.48106597,3.30671541 5.64401513,3.09312667 C5.93488832,2.71186146 7.29298896,1.97189323 8.38922493,1.59736086 C9.65886745,1.16373704 10.6500997,1 12.0042609,1 C13.0207771,1 13.6566012,1.07176925 14.5666811,1.2895123 C16.2301234,1.68775288 18.120262,2.63292961 18.2272713,3.12012968 C18.2687427,3.30886419 18.1680365,3.59644259 17.9861781,3.80888532 C17.3938311,4.50100738 15.7225816,5.08877035 13.628667,5.34139527 Z" id="Combined-Shape"></path>
        </g>
    </g>
</svg>